<?xml version="1.0" encoding="UTF-8" standalone="no"?>
<!-- Created with Inkscape (http://www.inkscape.org/) -->

<svg
   xmlns:dc="http://purl.org/dc/elements/1.1/"
   xmlns:cc="http://creativecommons.org/ns#"
   xmlns:rdf="http://www.w3.org/1999/02/22-rdf-syntax-ns#"
   xmlns:svg="http://www.w3.org/2000/svg"
   xmlns="http://www.w3.org/2000/svg"
   xmlns:sodipodi="http://sodipodi.sourceforge.net/DTD/sodipodi-0.dtd"
   xmlns:inkscape="http://www.inkscape.org/namespaces/inkscape"
   width="99"
   height="29"
   id="svg4334"
   version="1.1"
   inkscape:version="0.48.5 r10040"
   sodipodi:docname="main-logo.svg">
  <defs
     id="defs4336" />
  <sodipodi:namedview
     id="base"
     pagecolor="#ffffff"
     bordercolor="#666666"
     borderopacity="1.0"
     inkscape:pageopacity="0.0"
     inkscape:pageshadow="2"
     inkscape:zoom="4"
     inkscape:cx="76.85982"
     inkscape:cy="30.037955"
     inkscape:document-units="px"
     inkscape:current-layer="layer1"
     showgrid="false"
     fit-margin-top="0"
     fit-margin-left="0"
     fit-margin-right="0"
     fit-margin-bottom="0"
     inkscape:window-width="1537"
     inkscape:window-height="1111"
     inkscape:window-x="657"
     inkscape:window-y="22"
     inkscape:window-maximized="0"
     showguides="true"
     inkscape:guide-bbox="true" />
  <metadata
     id="metadata4339">
    <rdf:RDF>
      <cc:Work
         rdf:about="">
        <dc:format>image/svg+xml</dc:format>
        <dc:type
           rdf:resource="http://purl.org/dc/dcmitype/StillImage" />
        <dc:title></dc:title>
      </cc:Work>
    </rdf:RDF>
  </metadata>
  <g
     inkscape:label="Layer 1"
     inkscape:groupmode="layer"
     id="layer1"
     transform="translate(-158.5057,-516.37602)">
    <g
       id="g3013"
       transform="matrix(0.32691763,0,0,0.32691763,107.10723,367.08299)">
      <g
         transform="translate(-9.722718,143.54268)"
         id="g3076">
        <path
           style="font-size:100px;font-style:normal;font-variant:normal;font-weight:bold;font-stretch:normal;text-align:start;line-height:125%;letter-spacing:0px;word-spacing:0px;writing-mode:lr-tb;text-anchor:start;fill:#1a2326;fill-opacity:1;stroke:none;font-family:MeganoOT;-inkscape-font-specification:MeganoOT Bold"
           d="m 244.9375,25.0625 c -8.03348,0 -16.69199,1.49475 -22.65625,3.9375 l 2.3125,16.3125 c 4.50358,-2.09379 11.67886,-3.75 17.15625,-3.75 6.20769,0 9.53125,1.97215 9.53125,6.625 0,0.34896 -0.004,1.61802 -0.125,2.78125 -24.70906,0 -34.125,4.65777 -34.125,18.5 0,12.21376 7.56648,19.21875 20.46875,19.21875 5.47737,0 10.59996,0.04869 15.46875,-3.90625 l 0.59375,0 0.9375,3.90625 16.71875,0 c -2.58734,-4.60667 -2.83236,-14.61465 -2.75,-20.40625 0.10442,-7.33081 0.6875,-15.88877 0.6875,-21.9375 0,-15.70338 -11.19475,-21.28125 -24.21875,-21.28125 z m 5.9375,38.4375 0.0937,1.5625 c 0.17966,2.85023 -0.6793,5.29922 -2.625,7.3125 -1.94744,1.98716 -4.44451,3.06591 -7.46875,3.21875 -2.42542,0.12261 -4.3725,-0.29469 -5.8125,-1.21875 -1.41176,-0.95168 -2.13793,-2.31562 -2.25,-4.09375 -0.12201,-1.93501 0.60459,-3.42158 2.21875,-4.5 1.64411,-1.07991 4.14636,-1.70549 7.5,-1.875 L 250.875,63.5 z"
           transform="translate(168.22841,313.12596)"
           id="path3904-5-7-5-2-2"
           inkscape:connector-curvature="0" />
        <path
           inkscape:connector-curvature="0"
           id="path3900-5-0-0-4-7"
           style="font-size:100px;font-style:normal;font-variant:normal;font-weight:bold;font-stretch:normal;text-align:start;line-height:125%;letter-spacing:0px;word-spacing:0px;writing-mode:lr-tb;text-anchor:start;fill:#1a2326;fill-opacity:1;stroke:none;font-family:MeganoOT;-inkscape-font-specification:MeganoOT Bold"
           d="m 342.18294,355.37609 0,-17.16838 -14.62783,0 0,-20.91641 -19.85207,7.61696 0,13.29945 -9.27302,0 0,17.16838 9.27302,0 0,19.46557 c 0,11.84858 4.04881,26.35708 27.29659,26.96159 l 6.00785,-17.04746 c -9.66481,-1.08813 -13.45237,-4.71527 -13.45237,-14.7503 l 0,-14.6294 14.62783,0" />
        <path
           sodipodi:nodetypes="cccccccccccccccc"
           style="font-size:72.75852966px;font-style:normal;font-variant:normal;font-weight:900;font-stretch:normal;text-align:start;line-height:125%;letter-spacing:0px;word-spacing:0px;writing-mode:lr-tb;text-anchor:start;fill:#1a2326;fill-opacity:1;stroke:none;font-family:Arial Black;-inkscape-font-specification:'Arial Black, Heavy'"
           inkscape:connector-curvature="0"
           id="path4120-2-8-4-8-3"
           d="m 168.22841,338.24312 14.10944,63.5556 16.50538,0 c -4.19627,-22.10412 -7.72907,-40.88866 -12.01774,-63.5556 z m 35.06443,0 -3.5749,12.96275 6.38918,33.89377 6.46524,-23.33295 11.14303,40.03203 19.16754,0 13.99535,-63.5556 -18.52102,0 -6.69342,35.49506 -9.81196,-35.49506 z" />
        <path
           inkscape:connector-curvature="0"
           style="color:#000000;fill:#1a2326;fill-opacity:1;fill-rule:nonzero;stroke:none;stroke-width:0.1;marker:none;visibility:visible;display:inline;overflow:visible;enable-background:accumulate"
           d="m 286.71811,323.05196 c 0,5.48198 -4.44402,9.926 -9.926,9.926 -5.48198,0 -9.926,-4.44402 -9.926,-9.926 0,-5.48198 4.44402,-9.926 9.926,-9.926 5.48198,0 9.926,4.44402 9.926,9.926 z"
           id="path4925-1-4-7" />
        <path
           inkscape:connector-curvature="0"
           style="color:#000000;fill:#1a2326;fill-opacity:1;fill-rule:nonzero;stroke:none;stroke-width:0.1;marker:none;visibility:visible;display:inline;overflow:visible;enable-background:accumulate"
           d="m 372.91696,391.90732 c 0,5.48198 -4.44402,9.926 -9.926,9.926 -5.48198,0 -9.926,-4.44402 -9.926,-9.926 0,-5.48198 4.44402,-9.926 9.926,-9.926 5.48198,0 9.926,4.44402 9.926,9.926 z"
           id="path4925-4-9-9-9" />
        <path
           style="color:#000000;fill:#1a2326;fill-opacity:1;fill-rule:nonzero;stroke:none;stroke-width:0.1;marker:none;visibility:visible;display:inline;overflow:visible;enable-background:accumulate"
           d="m 468.29602,323.05196 c 0,5.48197 -4.44402,9.926 -9.926,9.926 -5.48198,0 -9.926,-4.44403 -9.926,-9.926 0,-5.48198 4.44402,-9.926 9.926,-9.926 5.48198,0 9.926,4.44402 9.926,9.926 z"
           id="path4925-8-5-4-0"
           inkscape:connector-curvature="0" />
        <path
           inkscape:connector-curvature="0"
           id="path3900-5-0-24-92-4-2"
           style="font-size:100px;font-style:normal;font-variant:normal;font-weight:bold;font-stretch:normal;text-align:start;line-height:125%;letter-spacing:0px;word-spacing:0px;writing-mode:lr-tb;text-anchor:start;fill:#1a2326;fill-opacity:1;stroke:none;font-family:MeganoOT;-inkscape-font-specification:MeganoOT Bold"
           d="m 286.71814,338.28166 -19.85206,0 0,63.52716 19.85206,0"
           sodipodi:nodetypes="cccc" />
        <path
           inkscape:connector-curvature="0"
           id="path3900-5-0-24-9-9-5-3"
           style="font-size:100px;font-style:normal;font-variant:normal;font-weight:bold;font-stretch:normal;text-align:start;line-height:125%;letter-spacing:0px;word-spacing:0px;writing-mode:lr-tb;text-anchor:start;fill:#1a2326;fill-opacity:1;stroke:none;font-family:MeganoOT;-inkscape-font-specification:MeganoOT Bold"
           d="m 468.29606,338.58252 -19.85208,0 0,63.2263 19.85208,0"
           sodipodi:nodetypes="cccc" />
      </g>
    </g>
  </g>
</svg>